<svg width="58" height="52" viewBox="0 0 58 52" fill="none" xmlns="http://www.w3.org/2000/svg">
<mask id="path-1-inside-1_202_30" fill="white">
<path d="M58 26C58 19.9848 55.6736 14.1556 51.4173 9.50578C47.161 4.85593 41.238 1.6731 34.6576 0.499583C28.0772 -0.673932 21.2466 0.234484 15.3295 3.07005C9.41242 5.90561 4.77503 10.4929 2.20749 16.0502C-0.360045 21.6076 -0.698878 27.7912 1.24873 33.5474C3.19634 39.3036 7.30988 44.2763 12.8885 47.6182C18.467 50.9601 25.1655 52.4644 31.8425 51.8748C38.5195 51.2852 44.7619 48.6382 49.5061 44.3848L39.939 35.8074C37.4082 38.0764 34.0782 39.4885 30.5163 39.803C26.9545 40.1175 23.3812 39.315 20.4052 37.5323C17.4293 35.7496 15.235 33.0969 14.196 30.0262C13.157 26.9555 13.3378 23.6569 14.7075 20.6923C16.0771 17.7277 18.5509 15.2806 21.7074 13.7679C24.8639 12.2553 28.5077 11.7707 32.0181 12.3967C35.5284 13.0227 38.688 14.7206 40.9586 17.2011C43.2291 19.6816 44.4701 22.7912 44.4701 26H58Z"/>
</mask>
<path d="M58 26C58 19.9848 55.6736 14.1556 51.4173 9.50578C47.161 4.85593 41.238 1.6731 34.6576 0.499583C28.0772 -0.673932 21.2466 0.234484 15.3295 3.07005C9.41242 5.90561 4.77503 10.4929 2.20749 16.0502C-0.360045 21.6076 -0.698878 27.7912 1.24873 33.5474C3.19634 39.3036 7.30988 44.2763 12.8885 47.6182C18.467 50.9601 25.1655 52.4644 31.8425 51.8748C38.5195 51.2852 44.7619 48.6382 49.5061 44.3848L39.939 35.8074C37.4082 38.0764 34.0782 39.4885 30.5163 39.803C26.9545 40.1175 23.3812 39.315 20.4052 37.5323C17.4293 35.7496 15.235 33.0969 14.196 30.0262C13.157 26.9555 13.3378 23.6569 14.7075 20.6923C16.0771 17.7277 18.5509 15.2806 21.7074 13.7679C24.8639 12.2553 28.5077 11.7707 32.0181 12.3967C35.5284 13.0227 38.688 14.7206 40.9586 17.2011C43.2291 19.6816 44.4701 22.7912 44.4701 26H58Z" fill="#EEB910" stroke="black" stroke-width="4" mask="url(#path-1-inside-1_202_30)"/>
</svg>
