<svg width="74" height="74" viewBox="0 0 74 74" fill="none" xmlns="http://www.w3.org/2000/svg">
<path d="M41.9207 24.0532L42.0767 24.7439L42.6753 24.3658L61.5583 12.4417L49.6342 31.3247L49.2561 31.9233L49.9468 32.0793L71.7307 37L49.9468 41.9207L49.2561 42.0767L49.6342 42.6753L61.5583 61.5583L42.6753 49.6342L42.0767 49.2561L41.9207 49.9468L37 71.7307L32.0793 49.9468L31.9233 49.2561L31.3247 49.6342L12.4417 61.5583L24.3658 42.6753L24.7439 42.0767L24.0532 41.9207L2.26929 37L24.0532 32.0793L24.7439 31.9233L24.3658 31.3247L12.4417 12.4417L31.3247 24.3658L31.9233 24.7439L32.0793 24.0532L37 2.26929L41.9207 24.0532Z" fill="#F8CF43" stroke="black"/>
</svg>
