<svg width="857" height="561" viewBox="0 0 857 561" fill="none" xmlns="http://www.w3.org/2000/svg">
<g clip-path="url(#clip0_14_282)">
<path d="M790.708 270.893H95.776C86.4612 270.893 78.8831 263.318 78.8831 254.007V16.8853C78.8831 7.57472 86.4612 0 95.776 0H790.708C800.023 0 807.602 7.57472 807.602 16.8853V254.007C807.602 263.318 800.023 270.893 790.708 270.893ZM95.776 2.01311C87.572 2.01311 80.8971 8.68498 80.8971 16.8853V254.007C80.8971 262.207 87.572 268.88 95.776 268.88H790.708C798.913 268.88 805.587 262.207 805.587 254.007V16.8853C805.587 8.68498 798.913 2.01311 790.708 2.01311H95.776Z" fill="black"/>
<path d="M857 554.166H0V555.86H857V554.166Z" fill="#E6E6E6"/>
<path d="M857 467.602H0V469.296H857V467.602Z" fill="#E6E6E6"/>
<path d="M172.768 377.231L194.468 363.438L203.29 368.757L172.768 403.813V377.231Z" fill="#BD7039"/>
<path d="M143.094 323.841C143.094 323.841 128.68 327.231 135.463 346.723C142.246 366.214 164.29 406.892 171.072 404.35C177.855 401.808 178.703 376.384 178.703 376.384C178.703 376.384 177.855 377.231 174.464 373.841C171.072 370.452 171.072 372 171.072 368.26C171.072 364.519 168.298 361.747 168.298 361.747L165.137 355.197C165.137 355.197 165.137 324.689 152.42 322.994C139.702 321.299 143.094 323.841 143.094 323.841Z" fill="#E6E6E6"/>
<path d="M210.433 367.845C216.062 362.219 217.806 354.841 214.33 351.366C210.853 347.891 203.472 349.635 197.843 355.261C192.214 360.887 190.47 368.265 193.946 371.74C197.423 375.215 204.804 373.472 210.433 367.845Z" fill="#BD7039"/>
<path d="M86.9534 436.13L101.761 460.627L188.051 455.524L165.074 425.923L86.9534 436.13Z" fill="#E6E6E6"/>
<path d="M112.737 550.706C112.234 550.706 111.797 550.335 111.727 549.824L85.9417 361.591C85.8652 361.032 86.2561 360.517 86.8148 360.441C87.3732 360.36 87.8883 360.755 87.9651 361.314L113.75 549.547C113.827 550.105 113.436 550.62 112.877 550.696C112.83 550.703 112.783 550.706 112.737 550.706Z" fill="#E6E6E6"/>
<path d="M86.9534 550.945C86.3895 550.945 85.9323 550.488 85.9323 549.924V361.489C85.9323 360.925 86.3895 360.468 86.9534 360.468C87.5174 360.468 87.9746 360.925 87.9746 361.489V549.924C87.9746 550.488 87.5174 550.945 86.9534 550.945Z" fill="#E6E6E6"/>
<path d="M216.388 550.196C215.954 550.196 215.551 549.917 215.414 549.481L154.399 355.635C154.229 355.097 154.528 354.524 155.066 354.354C155.604 354.186 156.178 354.484 156.347 355.022L217.362 548.868C217.532 549.406 217.233 549.979 216.695 550.149C216.593 550.181 216.49 550.196 216.388 550.196Z" fill="#E6E6E6"/>
<path d="M197.751 550.435C197.295 550.435 196.88 550.128 196.762 549.666L154.383 378.582C154.244 378.036 154.574 377.48 155.121 377.341C155.669 377.203 156.223 377.533 156.362 378.079L198.742 549.162C198.88 549.709 198.55 550.264 198.004 550.403C197.919 550.425 197.834 550.435 197.751 550.435Z" fill="#E6E6E6"/>
<path d="M86.9534 364.491L157.67 363.404L170.69 437.661H87.9746L86.9534 364.491Z" fill="#E6E6E6"/>
<path d="M195.628 473.681L177.806 505.044L198.499 509.597L207.126 487.291L195.628 473.681Z" fill="#BD7039"/>
<path d="M184.207 499.123C184.207 499.123 183.514 494.008 179.443 495.631C175.372 497.254 163.622 503.286 163.622 503.286C163.622 503.286 194.269 553.061 200.085 550.742C205.901 548.424 198.939 534.354 198.939 534.354L200.475 509.483L184.207 499.123Z" fill="#2F2E41"/>
<path d="M116.81 412.825C116.81 412.825 110.452 442.062 129.952 452.231C149.452 462.401 216.008 437.401 216.008 437.401L185.486 483.114L206.682 491.638C206.682 491.638 255.009 428.079 251.617 417.909C248.226 407.74 225.334 406.892 225.334 406.892L173.616 409.435L160.05 405.197L116.81 412.825Z" fill="#2F2E41"/>
<path d="M169.262 487.6L141.244 510.331L158.861 522.099L175.017 504.459L169.262 487.6Z" fill="#BD7039"/>
<path d="M149.362 507.144C149.362 507.144 150.579 502.128 146.196 502.159C141.813 502.19 128.672 503.535 128.672 503.535C128.672 503.535 139.098 561.044 145.359 561C151.621 560.956 150.258 545.318 150.258 545.318L160.743 522.711L149.362 507.144Z" fill="#2F2E41"/>
<path d="M118.003 402.249C118.003 402.249 101.436 427.169 115.897 443.734C130.359 460.299 201.453 461.22 201.453 461.22L156.381 492.697L173.021 508.347C173.021 508.347 241.173 466.722 241.717 456.016C242.26 445.311 221.246 436.195 221.246 436.195L172.148 419.752L161.055 410.872L118.003 402.249Z" fill="#2F2E41"/>
<path d="M160.561 344.528C160.561 344.528 144.452 338.596 136.821 338.596C136.092 338.596 135.372 338.68 134.651 338.833C129.767 339.867 125.274 344.062 123.12 346.35C122.281 347.248 121.798 347.85 121.798 347.85C121.798 347.85 121.849 347.265 121.95 346.24C122.451 340.85 124.299 323.163 127.614 311.841C128.801 307.799 130.166 304.57 131.734 303.002C135.389 299.341 137.076 294.952 137.856 291.68C138.517 288.875 138.517 286.901 138.517 286.901L132.336 284.24L131.192 276.765C130.988 277.646 130.047 279.367 126.885 282.663C126.613 282.943 126.317 283.18 126.003 283.384C121.442 286.248 112.141 281.265 107.13 278.129C109.216 270.884 112.997 264.257 119.865 263.172C135.974 260.629 135.974 251.307 146.148 261.477C146.987 262.316 147.835 263.121 148.683 263.901C151.939 270.121 153.125 278.46 153.549 284.257C153.855 288.316 153.778 291.138 153.778 291.138C153.778 291.138 158.018 316.562 164.8 321.647C171.583 326.731 160.561 344.528 160.561 344.528Z" fill="#2F2E41"/>
<path d="M129.191 303.85L117.735 320.646L143.604 327.579V303.85H129.191Z" fill="#BD7039"/>
<path opacity="0.1" d="M129.191 303.85L117.735 320.646L143.604 327.579V303.85H129.191Z" fill="black"/>
<path d="M145.213 320.028L120.626 309.858C120.626 309.858 87.5598 324.265 90.1034 352.231C92.6469 380.197 116.386 428.502 116.386 428.502L163.866 408.163L158.779 353.926L145.213 320.028Z" fill="#E6E6E6"/>
<path d="M134.671 311.349C146.651 311.349 156.363 301.641 156.363 289.666C156.363 277.692 146.651 267.984 134.671 267.984C122.691 267.984 112.979 277.692 112.979 289.666C112.979 301.641 122.691 311.349 134.671 311.349Z" fill="#BD7039"/>
<path d="M163.952 281.816C159.713 286.053 156.322 290.29 156.322 290.29L154.626 283.511C154.626 283.511 154.236 283.799 153.549 284.257C150.862 286.087 143.647 290.689 137.856 291.68C135.278 292.121 132.989 291.841 131.497 290.29C128.335 286.994 127.393 285.273 127.19 284.392L126.045 291.867L119.865 294.528C119.865 294.528 119.865 303.833 126.647 310.629C126.978 310.96 127.3 311.367 127.614 311.841C130.853 316.723 133.176 328.672 134.651 338.833C135.957 347.867 136.584 355.477 136.584 355.477C136.584 355.477 130.166 347.443 123.12 346.35C122.73 346.291 122.34 346.248 121.95 346.24C121.823 346.223 121.688 346.223 121.56 346.223C113.93 346.223 97.8207 352.155 97.8207 352.155C97.8207 352.155 86.7988 334.358 93.5815 329.274C100.364 324.189 104.603 298.765 104.603 298.765C104.603 298.765 104.324 287.884 107.13 278.129C109.216 270.884 112.997 264.257 119.865 263.172C135.974 260.629 135.974 251.307 146.148 261.477C146.987 262.316 147.835 263.121 148.683 263.901C158.162 272.613 167.844 277.926 163.952 281.816Z" fill="#2F2E41"/>
<path d="M68.813 395.576H60.7569V554.612H68.813V395.576Z" fill="#3F3D56"/>
<path d="M264.173 395.576H256.117V554.612H264.173V395.576Z" fill="#3F3D56"/>
<path d="M212.815 328.137H159.444V381.484H212.815V328.137Z" fill="#9747FF"/>
<path d="M128.68 384.858L150.38 371.065L159.203 376.384L128.68 411.44V384.858Z" fill="#BD7039"/>
<path d="M99.0057 331.468C99.0057 331.468 84.5924 334.858 91.3751 354.35C98.1579 373.841 120.202 414.519 126.985 411.977C133.767 409.435 134.615 384.011 134.615 384.011C134.615 384.011 133.767 384.858 130.376 381.468C126.985 378.079 126.985 379.627 126.985 375.887C126.985 372.146 124.211 369.374 124.211 369.374L121.05 362.824C121.05 362.824 121.05 332.316 108.332 330.621C95.6143 328.926 99.0057 331.468 99.0057 331.468Z" fill="#E6E6E6"/>
<path d="M166.345 375.472C171.974 369.846 173.719 362.468 170.242 358.993C166.766 355.518 159.384 357.262 153.755 362.888C148.127 368.514 146.382 375.892 149.859 379.367C153.335 382.843 160.717 381.099 166.345 375.472Z" fill="#BD7039"/>
<path d="M280.285 389.537H36.5886V407.655H280.285V389.537Z" fill="#3F3D56"/>
<path d="M527.879 244.593H491.888C489.035 244.593 486.722 246.905 486.722 249.756V264.593C486.722 267.445 489.035 269.757 491.888 269.757H527.879C530.732 269.757 533.045 267.445 533.045 264.593V249.756C533.045 246.905 530.732 244.593 527.879 244.593Z" fill="#3F3D56"/>
<path d="M603.405 259.43H567.414C564.561 259.43 562.248 261.741 562.248 264.593V264.593C562.248 267.445 564.561 269.757 567.414 269.757H603.405C606.258 269.757 608.571 267.445 608.571 264.593V264.593C608.571 261.741 606.258 259.43 603.405 259.43Z" fill="#9747FF"/>
<line x1="124.5" y1="1" x2="124.5" y2="271" stroke="black"/>
<line x1="188.5" y1="1" x2="188.5" y2="271" stroke="black"/>
<line x1="252.5" y1="1" x2="252.5" y2="271" stroke="black"/>
<line x1="317.5" y1="1" x2="317.5" y2="271" stroke="black"/>
<line x1="381.5" y1="1" x2="381.5" y2="271" stroke="black"/>
<line x1="443.5" y1="1" x2="443.5" y2="271" stroke="black"/>
<line x1="510.5" y1="1" x2="510.5" y2="271" stroke="black"/>
<line x1="573.5" y1="1" x2="573.5" y2="271" stroke="black"/>
<line x1="633.5" y1="1" x2="633.5" y2="271" stroke="black"/>
<line x1="699.5" y1="1" x2="699.5" y2="271" stroke="black"/>
<line x1="760.5" y1="1" x2="760.5" y2="271" stroke="black"/>
<path d="M818.354 353.309L769.694 338.42C768.618 338.09 767.488 337.97 766.367 338.065L519.748 359.045C516.232 359.344 515.348 364.085 518.52 365.629L526.42 369.476H526.209V553.627H533.653V372.999L558.411 385.055C560.306 385.977 562.42 386.354 564.516 386.142L567.15 385.876V553.627H574.594V385.124L765.342 365.866V553.627H772.785V365.114L804.422 361.92V553.627H811.865V361.168L817.637 360.586C821.689 360.177 822.248 354.5 818.354 353.309Z" fill="#3F3D56"/>
<path d="M591.343 358.316C595.995 358.316 664.85 349.945 664.85 349.945L675.085 363.896L603.439 377.847L591.343 358.316Z" fill="white"/>
<path d="M666.912 546.475L654.95 546.454L649.338 500.322L666.994 500.354L666.912 546.475Z" fill="#CF8C95"/>
<path d="M625.927 546.134C625.553 546.76 625.353 548.783 625.352 549.513C625.348 551.754 627.163 553.574 629.405 553.578L666.452 553.642C667.982 553.644 669.224 552.407 669.227 550.878L669.23 549.336C669.23 549.336 671.07 544.706 667.307 538.988C667.307 538.988 662.61 543.452 655.614 536.436L653.554 532.69L638.578 543.599L630.285 544.605C628.471 544.825 626.863 544.565 625.927 546.134Z" fill="#2F2E41"/>
<path d="M731.117 525.023L721.679 532.139L689.727 499.137L703.657 488.635L731.117 525.023Z" fill="#CF8C95"/>
<path d="M698.62 549.191C698.7 549.908 699.75 551.621 700.184 552.196C701.519 553.965 704.034 554.317 705.804 552.983L735.032 530.944C736.238 530.034 736.479 528.318 735.568 527.112L734.65 525.896C734.65 525.896 733.337 521.15 726.96 518.889C726.96 518.889 725.923 525.206 716.224 523.849L712.366 522.126L707.075 539.652L701.142 545.389C699.844 546.644 698.421 547.397 698.62 549.191Z" fill="#2F2E41"/>
<path d="M706.116 286.606C706.116 297.633 697.173 306.572 686.141 306.572C675.11 306.572 666.167 297.633 666.167 286.606C666.167 275.579 675.11 266.641 686.141 266.641C697.173 266.641 706.116 275.579 706.116 286.606Z" fill="#CF8C95"/>
<path d="M704.234 401.723C704.234 401.723 630.69 397.562 626.527 405.884C622.364 414.206 649.032 528.516 649.032 528.516L672.824 523.531L661.218 443.332C661.218 443.332 722.588 459.578 730.914 440.16C739.24 420.742 736.843 413.512 736.843 413.512L704.234 401.723Z" fill="#2F2E41"/>
<path d="M723.077 387.754C723.077 387.754 651.051 403.187 649.239 412.313C647.427 421.439 703.398 524.626 703.398 524.626L725.023 513.528L692.605 439.255C692.605 439.255 756.089 438.695 758.979 417.767C761.869 396.84 757.644 390.501 757.644 390.501L723.077 387.754Z" fill="#2F2E41"/>
<path d="M731.292 309.488H696.689L673.012 348.323C673.012 348.323 667.462 373.42 673.012 376.129C678.563 378.837 678.563 407.964 678.563 407.964L736.843 413.512C736.843 413.512 745.169 326.132 742.393 317.81C739.618 309.488 731.292 309.488 731.292 309.488Z" fill="#9747FF"/>
<path d="M676.482 335.147L673.012 376.129L633.993 359.576L624.681 354.895C622.857 352.517 620.49 350.611 617.778 349.336C611.033 346.05 603.873 346.864 601.782 351.153C599.691 355.441 603.461 361.58 610.204 364.864C612.881 366.213 615.842 366.902 618.84 366.873L646.088 382.342L646.12 382.281L646.241 382.497L688.97 400.336L698.802 346.536L676.482 335.147Z" fill="#CF8C95"/>
<path d="M672.319 289.376C672.319 289.376 651.504 292.15 659.83 274.119C659.83 274.119 658.561 264.345 664.746 263.684C670.931 263.023 679.257 251.928 679.257 251.928C679.257 251.928 698.345 242.219 708.227 251.928C718.11 261.636 747.25 318.503 747.25 318.503L727.823 339.308C727.823 339.308 716.144 308.619 702.557 312.174C688.97 315.729 676.481 326.328 676.481 326.328C676.481 326.328 662.693 319.431 668.893 313.419C675.094 307.407 672.319 289.376 672.319 289.376Z" fill="#2F2E41"/>
<path d="M700.071 319.89C700.071 319.89 690.358 307.407 683.42 317.116C676.481 326.825 670.931 339.308 670.931 339.308L698.683 349.017L700.071 319.89Z" fill="#9747FF"/>
<path d="M805.443 550.866L773.199 448.429L773.204 448.429H773.279L773.148 448.261L773.145 448.258L770.849 440.961L770.85 440.96C774.349 437.947 776.731 433.641 777.205 428.683L762.466 347.657C763.481 337.017 755.32 327.717 744.629 327.335L711.374 327.252C701.92 326.917 693.732 333.743 692.355 343.1L691.62 348.066L681.431 417.346C681.059 419.839 681.208 422.294 681.794 424.591L674.462 425.549L672.238 425.847L663.445 426.991L663.417 427L662.319 427.14H661.128V456.901H661.203V552.027C661.203 552.641 661.705 553.143 662.319 553.143C662.943 553.143 663.445 552.641 663.445 552.027V456.901H676.49L689.508 551.916C689.592 552.474 690.066 552.883 690.624 552.883C690.671 552.883 690.727 552.883 690.773 552.874C691.387 552.79 691.815 552.223 691.732 551.609L678.761 456.901H741.354C747.569 456.901 753.328 454.93 758.017 451.554L782.835 551.741C782.964 552.248 783.42 552.585 783.92 552.585C784.011 552.585 784.104 552.574 784.197 552.551C784.797 552.398 785.16 551.788 785.007 551.189L759.95 450.033C760.283 449.755 760.616 449.459 760.931 449.154L770.894 448.568L803.305 551.539C803.455 552.017 803.897 552.323 804.374 552.323C804.485 552.323 804.598 552.306 804.71 552.271C805.301 552.085 805.629 551.456 805.443 550.866ZM768.719 442.551C768.803 442.504 768.877 442.448 768.952 442.402L769.192 443.162L768.719 442.551Z" fill="#E6E6E6"/>
<path d="M390.559 279.613C391.174 287.343 395.664 293.292 400.585 292.9C405.507 292.508 408.997 285.924 408.38 278.191C408.176 275.098 407.234 272.1 405.633 269.446L402.612 236.725L387.281 238.47L391.887 270.541C390.726 273.416 390.27 276.527 390.559 279.613Z" fill="#BD7039"/>
<path d="M372.244 126.96C372.244 126.96 386.576 119.377 393.843 130.709C401.11 142.041 406.125 264.602 406.125 264.602L385.983 266.751L382.165 180.386L372.244 126.96Z" fill="#E6E6E6"/>
<path d="M342.498 461.208L354.167 461.207L359.718 416.219L342.496 416.22L342.498 461.208Z" fill="#BD7039"/>
<path d="M382.476 460.943C382.84 461.555 383.031 463.529 383.031 464.24C383.031 466.426 381.258 468.199 379.071 468.199H342.935C341.443 468.199 340.233 466.99 340.233 465.498V463.994C340.233 463.994 338.445 459.475 342.126 453.904C342.126 453.904 346.7 458.266 353.535 451.434L355.551 447.784L370.141 458.45L378.228 459.445C379.997 459.662 381.566 459.411 382.476 460.943Z" fill="#2F2E41"/>
<path d="M410.023 459.277L421.328 456.389L415.567 411.428L398.881 415.69L410.023 459.277Z" fill="#BD7039"/>
<path d="M448.692 449.13C449.195 449.633 449.87 451.498 450.046 452.187C450.587 454.305 449.308 456.461 447.189 457.002L412.177 465.942C410.731 466.311 409.26 465.439 408.89 463.994L408.518 462.537C408.518 462.537 405.667 458.6 407.853 452.292C407.853 452.292 413.365 455.387 418.296 447.077L419.345 443.042L436.123 449.766L444.205 448.729C445.973 448.503 447.43 447.871 448.692 449.13Z" fill="#2F2E41"/>
<path d="M332.845 117.289L332.291 113.276L338.867 97.2234L356.934 95.2168L360.835 118.198L332.845 117.289Z" fill="#BD7039"/>
<path opacity="0.1" d="M332.845 117.289L332.291 113.276L338.867 97.2234L356.934 95.2168L360.835 118.198L332.845 117.289Z" fill="black"/>
<path d="M311.766 230.66L303.736 252.732L309.759 264.771L339.871 439.342H359.89L355.93 284.837L402.102 439.342H421.916L405.983 335.001L394.072 238.686L386.848 234.225L351.916 214.607L311.766 230.66Z" fill="#2F2E41"/>
<path d="M362.957 245.709L350.912 247.716L334.852 209.591H370.986L362.957 245.709Z" fill="#E6E6E6"/>
<path d="M387.046 235.676L362.957 245.709L354.927 227.65L350.912 247.716L308.755 234.151L314.777 209.591L308.755 129.328L330.014 115.162L332.845 113.276L358.942 115.282L361.23 116.527L377.009 125.315L381.024 191.532L387.046 235.676Z" fill="#2F2E41"/>
<path d="M361.23 116.527L349.908 164.443L330.014 115.162L332.845 113.276L358.942 115.282L361.23 116.527Z" fill="#E6E6E6"/>
<path d="M341.878 113.276L337.863 120.187L341.878 122.491L339.871 164.568L347.901 175.479L355.93 159.352L349.908 122.491L351.915 113.276H341.878Z" fill="#2F2E41"/>
<path d="M347.901 109.263C358.433 109.263 366.972 100.728 366.972 90.2004C366.972 79.6726 358.433 71.1381 347.901 71.1381C337.368 71.1381 328.83 79.6726 328.83 90.2004C328.83 100.728 337.368 109.263 347.901 109.263Z" fill="#BD7039"/>
<path d="M335.713 91.8725L339.833 93.6701L341.632 82.8848C341.632 82.8848 348.825 79.2897 354.22 81.0873C359.615 82.8848 368.607 81.0873 368.607 81.0873C368.607 81.0873 368.607 63.1118 356.019 63.1118C343.43 63.1118 330.842 64.9094 330.842 70.302C330.842 75.6946 325.447 81.0873 325.447 81.0873C325.447 81.0873 318.253 91.8725 325.447 99.0627C332.64 106.253 336.237 106.253 336.237 106.253L335.713 91.8725Z" fill="#2F2E41"/>
<path d="M298.708 279.049C298.499 286.801 302.331 293.193 307.267 293.325C312.202 293.457 316.372 287.281 316.58 279.526C316.705 276.429 316.087 273.348 314.777 270.539L315.248 237.683L299.818 237.79L300.992 270.169C299.532 272.905 298.749 275.949 298.708 279.049Z" fill="#BD7039"/>
<path d="M317.798 125.278C317.798 125.278 304.75 121.264 298.727 133.304C292.705 145.343 300.735 267.744 300.735 267.744H320.991L315.615 181.461L317.798 125.278Z" fill="#E6E6E6"/>
</g>
<defs>
<clipPath id="clip0_14_282">
<rect width="857" height="561" fill="white"/>
</clipPath>
</defs>
</svg>
