<svg width="21" height="21" viewBox="0 0 21 21" fill="none" xmlns="http://www.w3.org/2000/svg">
<path d="M10.5022 5.37225C7.66453 5.37225 5.37563 7.66166 5.37563 10.5C5.37563 13.3383 7.66453 15.6277 10.5022 15.6277C13.3399 15.6277 15.6288 13.3383 15.6288 10.5C15.6288 7.66166 13.3399 5.37225 10.5022 5.37225ZM10.5022 13.8337C8.66843 13.8337 7.16927 12.3387 7.16927 10.5C7.16927 8.66133 8.66397 7.1663 10.5022 7.1663C12.3405 7.1663 13.8352 8.66133 13.8352 10.5C13.8352 12.3387 12.336 13.8337 10.5022 13.8337ZM17.0343 5.1625C17.0343 5.82746 16.4989 6.35853 15.8385 6.35853C15.1737 6.35853 14.6428 5.82299 14.6428 5.1625C14.6428 4.50201 15.1782 3.96647 15.8385 3.96647C16.4989 3.96647 17.0343 4.50201 17.0343 5.1625ZM20.4297 6.37638C20.3539 4.77424 19.988 3.35507 18.8146 2.18582C17.6456 1.01657 16.2267 0.650619 14.6249 0.570289C12.9741 0.47657 8.02593 0.47657 6.37507 0.570289C4.77775 0.646156 3.3589 1.01211 2.18544 2.18136C1.01199 3.35061 0.650586 4.76978 0.570273 6.37192C0.476576 8.02315 0.476576 12.9724 0.570273 14.6236C0.646124 16.2258 1.01199 17.6449 2.18544 18.8142C3.3589 19.9834 4.77328 20.3494 6.37507 20.4297C8.02593 20.5234 12.9741 20.5234 14.6249 20.4297C16.2267 20.3538 17.6456 19.9879 18.8146 18.8142C19.9835 17.6449 20.3494 16.2258 20.4297 14.6236C20.5234 12.9724 20.5234 8.02761 20.4297 6.37638ZM18.297 16.3953C17.949 17.2701 17.2752 17.9439 16.3963 18.2965C15.08 18.8186 11.9568 18.6981 10.5022 18.6981C9.04769 18.6981 5.91997 18.8142 4.6082 18.2965C3.73369 17.9484 3.05996 17.2745 2.70747 16.3953C2.18544 15.0788 2.30591 11.9549 2.30591 10.5C2.30591 9.04513 2.18991 5.91671 2.70747 4.60465C3.05549 3.72995 3.72922 3.05606 4.6082 2.7035C5.92443 2.18136 9.04769 2.30185 10.5022 2.30185C11.9568 2.30185 15.0845 2.18582 16.3963 2.7035C17.2708 3.0516 17.9445 3.72548 18.297 4.60465C18.819 5.92118 18.6985 9.04513 18.6985 10.5C18.6985 11.9549 18.819 15.0833 18.297 16.3953Z" fill="white"/>
</svg>
