<svg width="13" height="21" viewBox="0 0 13 21" fill="none" xmlns="http://www.w3.org/2000/svg">
<path d="M7.82314 11.8125V20.5H4.7146V11.8125V11.3125H4.2146H1.37634V8.51199H4.2146H4.7146V8.01199V5.11547C4.7146 3.56766 5.17359 2.42777 5.92522 1.67542C6.67737 0.922569 7.78023 0.5 9.18078 0.5C9.87337 0.5 10.5882 0.562024 11.1343 0.625079C11.3208 0.646616 11.4865 0.668144 11.6236 0.687108V2.99248H10.4658C9.54059 2.99248 8.85187 3.28402 8.40381 3.80214C7.96745 4.30672 7.82314 4.95316 7.82314 5.54572V8.01199V8.51199H8.32314H11.3873L10.9575 11.3125H8.32314H7.82314V11.8125Z" stroke="white"/>
</svg>
