<svg width="26" height="21" viewBox="0 0 26 21" fill="none" xmlns="http://www.w3.org/2000/svg">
<path d="M22.6383 5.07844L22.4113 5.24169L22.4316 5.52054C22.4459 5.71821 22.4461 5.91889 22.4461 6.14062C22.4461 12.5899 17.4639 20 8.36805 20C6.28783 20 4.31879 19.5603 2.54723 18.7676C4.74214 18.6086 6.75797 17.8071 8.40392 16.5364L9.52586 15.6703L8.10878 15.6408C6.35651 15.6043 4.85458 14.6292 4.09523 13.216C4.15472 13.2178 4.21476 13.2187 4.27541 13.2187C4.77972 13.2187 5.28132 13.1503 5.74742 13.0313L5.72166 12.0566C3.83982 11.6808 2.38326 10.1983 2.07542 8.33219C2.61837 8.52925 3.20404 8.64891 3.81261 8.67151L5.60426 8.73803L4.10562 7.75391C2.85899 6.93528 2.04693 5.54176 2.04693 3.96871C2.04693 3.38034 2.15757 2.82719 2.36011 2.31716C4.95793 5.15868 8.66324 6.99037 12.7839 7.20244L13.4333 7.23586L13.2988 6.59966C13.2255 6.25312 13.1827 5.8975 13.1827 5.54688C13.1827 3.04784 15.237 1 17.8065 1C19.1417 1 20.3441 1.55097 21.1878 2.43828L21.3754 2.6356L21.6429 2.58506C22.3418 2.45304 23.024 2.25058 23.6741 1.98687C23.3076 2.48356 22.8391 2.9059 22.2961 3.22523L22.6022 4.15345C23.0773 4.10308 23.545 4.01818 24.0011 3.90451C23.5825 4.33357 23.1262 4.72757 22.6383 5.07844Z" stroke="white"/>
</svg>
