<svg width="24" height="17" viewBox="0 0 24 17" fill="none" xmlns="http://www.w3.org/2000/svg">
<path d="M22.5365 3.13309L22.5366 3.13338C22.7615 3.96941 22.8804 5.29896 22.9406 6.45558C22.9703 7.02638 22.9852 7.54249 22.9926 7.91593C22.9963 8.10254 22.9982 8.25324 22.9991 8.35701C22.9995 8.40888 22.9998 8.449 22.9999 8.476L23 8.50645L23 8.51397L23 8.51574V8.51612V8.51615V8.51619V8.51621V8.51659L23 8.51836L23 8.52588L22.9999 8.55634C22.9998 8.58333 22.9995 8.62345 22.9991 8.67533C22.9982 8.77909 22.9963 8.9298 22.9926 9.1164C22.9852 9.48984 22.9703 10.006 22.9406 10.5767C22.8804 11.7334 22.7615 13.0629 22.5366 13.899L22.5365 13.8992C22.3209 14.7026 21.6836 15.3183 20.8573 15.5382L20.857 15.5383C20.4604 15.6441 19.7193 15.7318 18.789 15.7994C17.8726 15.866 16.8134 15.9106 15.8056 15.9404C14.7985 15.9702 13.8468 15.9851 13.1465 15.9926C12.7965 15.9963 12.5095 15.9981 12.3102 15.9991C12.2106 15.9995 12.1328 15.9998 12.0801 15.9999L12.0202 16L12.005 16L12.0012 16H12.0003H12L12 16.5L11.9999 16H11.9997H11.9988L11.995 16L11.9798 16L11.9199 15.9999C11.8672 15.9998 11.7894 15.9995 11.6898 15.9991C11.4905 15.9981 11.2035 15.9963 10.8535 15.9926C10.1532 15.9851 9.20148 15.9702 8.19444 15.9404C7.1866 15.9106 6.12739 15.866 5.21104 15.7994C4.28068 15.7318 3.53959 15.6441 3.14295 15.5383L3.14265 15.5382C2.31635 15.3183 1.67915 14.7026 1.46351 13.8992L1.46343 13.899C1.23847 13.0629 1.11957 11.7334 1.0594 10.5768C1.02971 10.006 1.01484 9.48984 1.00741 9.1164C1.0037 8.9298 1.00184 8.77909 1.00092 8.67533C1.00046 8.62345 1.00023 8.58333 1.00011 8.55634L1.00001 8.52588L1 8.51836L1 8.51659L1 8.51621V8.51619V8.51615V8.51612L1 8.51574L1 8.51397L1.00001 8.50645L1.00011 8.476C1.00023 8.449 1.00046 8.40888 1.00092 8.357C1.00184 8.25324 1.0037 8.10254 1.00741 7.91593C1.01484 7.54249 1.02971 7.02638 1.0594 6.45558C1.11957 5.29896 1.23847 3.96941 1.46343 3.13338L1.46351 3.13309C1.68145 2.3212 2.32514 1.67938 3.14267 1.46176L3.14295 1.46168C3.53959 1.35585 4.28068 1.26817 5.21104 1.20059C6.12739 1.13403 7.1866 1.08942 8.19444 1.0596C9.20148 1.02981 10.1532 1.01491 10.8535 1.00745C11.2035 1.00372 11.4905 1.00186 11.6898 1.00093C11.7894 1.00046 11.8672 1.00023 11.9199 1.00012L11.9798 1.00001L11.995 1L11.9988 1L11.9997 1H11.9999L12 0.5L12 1H12.0003L12.0012 1L12.005 1L12.0202 1.00001L12.0801 1.00012C12.1328 1.00023 12.2106 1.00046 12.3102 1.00093C12.5095 1.00186 12.7965 1.00372 13.1465 1.00745C13.8468 1.01491 14.7985 1.02981 15.8056 1.0596C16.8134 1.08942 17.8726 1.13403 18.789 1.20059C19.7193 1.26817 20.4604 1.35585 20.857 1.46168L20.8573 1.46176C21.6749 1.67934 22.3185 2.32118 22.5365 3.13309ZM9.14771 11.8996V12.7548L9.89295 12.3354L15.9043 8.95198L16.6784 8.51626L15.9043 8.08053L9.89296 4.69699L9.14771 4.27752V5.13271V11.8996Z" stroke="white"/>
</svg>
